<svg width="30" height="29" viewBox="0 0 30 29" fill="none" xmlns="http://www.w3.org/2000/svg">
<path d="M25.9615 6.87253L15.7908 1.0714C15.1501 0.712527 14.3107 0.712527 13.6649 1.0714L3.41474 6.87253C2.75371 7.24659 2.3042 7.94961 2.3042 8.70157V20.2884C2.3042 21.0404 2.76316 21.7436 3.42442 22.1197L6.12681 23.635C7.42328 24.263 7.78248 24.263 8.37231 24.263C10.2925 24.263 11.2897 23.1214 11.2897 21.1301V9.69097C11.2899 9.52943 11.3924 9.28905 11.2309 9.28905H9.93559C9.77154 9.28905 9.44668 9.52943 9.44668 9.69075V21.1299C9.44668 22.0126 8.61354 22.891 7.09611 22.1449L4.30317 20.556C4.20594 20.5039 4.14742 20.399 4.14742 20.2884V8.70157C4.14742 8.59237 4.2541 8.48271 4.35271 8.42675L14.5775 2.63559C14.6731 2.58235 14.8084 2.58235 14.9035 2.63559L25.0327 8.42539C25.1297 8.48271 25.1143 8.58897 25.1143 8.70157V20.2884C25.1143 20.399 25.1355 20.5066 25.0399 20.5599L14.8715 26.3544C14.7844 26.4058 14.6711 26.4058 14.5754 26.3544L11.968 24.8253C11.8894 24.7805 11.7947 24.7644 11.7191 24.8059C10.9945 25.2098 10.86 25.2635 10.1803 25.4953C10.0128 25.5526 9.76578 25.6521 10.2743 25.9323L13.6838 27.9157C14.01 28.1014 14.3812 28.198 14.7545 28.198C15.1328 28.198 15.503 28.1014 15.8295 27.9157L25.9617 22.1197C26.6232 21.7409 26.9575 21.0404 26.9575 20.2884V8.70157C26.9573 7.94961 26.623 7.2484 25.9615 6.87253ZM17.9087 18.4524C15.2067 18.4524 14.6118 17.7194 14.4135 16.3984C14.39 16.2561 14.2674 16.0859 14.1199 16.0859H12.7997C12.6364 16.0859 12.5048 16.2808 12.5048 16.4407C12.5048 18.1322 13.4402 20.1817 17.9087 20.1817C21.1431 20.1817 22.9978 18.9458 22.9978 16.7586C22.9978 14.5899 21.5078 14.0208 18.3709 13.6125C15.2001 13.2004 14.878 12.9922 14.878 12.2618C14.878 11.6596 15.1508 10.8564 17.4986 10.8564C19.5961 10.8564 20.3694 11.2991 20.6876 12.6895C20.715 12.8203 20.8364 12.9141 20.9735 12.9141H22.2992C22.3808 12.9141 22.4584 12.8817 22.5156 12.8243C22.5711 12.7627 22.6001 12.6854 22.593 12.6025C22.3872 10.208 20.7698 9.09217 17.4983 9.09217C14.5879 9.09217 12.852 10.3007 12.852 12.3263C12.852 14.5236 14.5794 15.1307 17.373 15.4024C20.715 15.7246 20.9749 16.2049 20.9749 16.8513C20.9749 17.9741 20.0583 18.4524 17.9087 18.4524Z" fill="#83CD29"/>
</svg>
