<svg width="29" height="29" viewBox="0 0 29 29" fill="none" xmlns="http://www.w3.org/2000/svg">
<path d="M14.061 0.000222835C12.8873 0.00582632 11.7669 0.106409 10.7806 0.282358C7.87545 0.799561 7.34836 1.88215 7.34836 3.87896V6.51568H14.2131V7.39459H4.77183C2.77688 7.39459 1.02992 8.60298 0.483364 10.9027C-0.147146 13.5377 -0.174946 15.1823 0.483364 17.9339C0.971258 19.9823 2.13664 21.4414 4.13187 21.4414H6.49239V18.2805C6.49239 15.9968 8.45259 13.9826 10.7809 13.9826H17.6378C19.5466 13.9826 21.07 12.3985 21.07 10.467V3.87924C21.07 2.00403 19.5004 0.595594 17.6378 0.282639C16.4579 0.0848355 15.2345 -0.00510048 14.061 0.000222835ZM10.3486 2.12086C11.0575 2.12086 11.6368 2.71399 11.6368 3.44357C11.6368 4.17006 11.0577 4.75759 10.3486 4.75759C9.63688 4.75759 9.06058 4.17006 9.06058 3.44357C9.0603 2.71399 9.63688 2.12086 10.3486 2.12086Z" fill="#376D9C"/>
<path d="M21.926 7.39457V10.467C21.926 12.8484 19.9222 14.8531 17.6375 14.8531H10.7806C8.90242 14.8531 7.34839 16.4733 7.34839 18.369V24.9573C7.34839 26.832 8.96581 27.935 10.7806 28.4727C12.9535 29.1162 15.0374 29.2328 17.6375 28.4727C19.3656 27.9681 21.0698 26.9533 21.0698 24.9573V22.3203H14.2131V21.4411H24.5025C26.4975 21.4411 27.2414 20.0388 27.9353 17.9336C28.652 15.7665 28.6211 13.6822 27.9353 10.9024C27.4421 8.90051 26.5005 7.39429 24.5025 7.39429H21.926V7.39457ZM18.0693 24.0781C18.7812 24.0781 19.3575 24.6656 19.3575 25.3927C19.3575 26.1217 18.781 26.7148 18.0693 26.7148C17.3604 26.7148 16.7813 26.1217 16.7813 25.3927C16.7813 24.6656 17.3604 24.0781 18.0693 24.0781Z" fill="#FFD644"/>
</svg>
