<svg width="30" height="29" viewBox="0 0 30 29" fill="none" xmlns="http://www.w3.org/2000/svg">
<g clip-path="url(#clip0)">
<path fill-rule="evenodd" clip-rule="evenodd" d="M25.2711 3.33872C22.4588 1.97414 19.5783 1.83526 16.6292 2.86045C13.9152 3.80386 11.7504 5.49197 10.141 7.79113C7.41789 11.6817 5.43988 15.9268 4.33141 20.5382C3.7637 22.8983 3.39598 25.4016 3.49482 27.839C3.50289 28.0368 3.53284 28.0936 3.55265 28.5467H17.4611C17.4213 28.0936 17.395 28.2259 17.3604 28.1396C16.6289 26.3031 16.0497 24.3637 15.649 22.4307C15.0735 19.6551 14.7721 16.828 15.3665 14.0268C16.1985 10.1043 18.4724 7.27412 22.3056 5.80644C24.4769 4.97564 26.5378 5.21194 28.3453 6.77205C28.3619 6.78633 28.396 6.77772 28.4403 6.78474L29.0313 5.905C27.8931 4.83947 26.6424 4.00437 25.2711 3.33872ZM0.7687 21.386C0.662715 22.2748 0.563642 23.107 0.459961 23.9804L3.0248 24.2831L3.49459 21.5886C2.56031 21.519 1.67303 21.4531 0.7687 21.386ZM5.803 13.6407L3.39045 12.7125L2.61077 14.8891L5.06939 15.664C5.31823 14.9772 5.55232 14.3313 5.803 13.6407ZM17.1893 25.7979C18.0129 25.8581 18.8382 25.8996 19.7474 25.9517C19.4172 25.2768 19.1239 24.6664 18.8168 24.0633C18.7832 23.9978 18.6696 23.9346 18.5924 23.9335C17.8936 23.9235 17.1943 23.9278 16.4517 23.9278C16.619 24.5232 16.7644 25.0726 16.9347 25.6141C16.9602 25.6959 17.0976 25.7913 17.1893 25.7979ZM9.89195 7.04665L8.0591 5.85312C7.56788 6.39301 7.09417 6.91343 6.59397 7.46284L8.4782 8.70803L9.89195 7.04665ZM15.729 19.1381C15.726 19.2108 15.7926 19.3266 15.8575 19.3553C16.5176 19.6471 17.1847 19.9251 17.9109 20.2328C17.8807 19.6682 17.8604 19.1963 17.8261 18.7253C17.8199 18.6405 17.7793 18.5186 17.7155 18.4837C17.1093 18.1539 16.4946 17.8387 15.8225 17.488C15.7859 18.0918 15.7486 18.6145 15.729 19.1381ZM15.1859 2.78659L13.9311 1.38621L12.2033 2.26935C12.6356 2.78727 13.0436 3.27597 13.4602 3.77463L15.1859 2.78659ZM15.9727 13.928C15.9352 14.0128 15.9847 14.1924 16.0587 14.2579C16.5598 14.7024 17.078 15.1279 17.6544 15.613C17.7865 15.0692 17.9109 14.5846 18.0164 14.0966C18.0351 14.0098 18.009 13.8664 17.9477 13.8179C17.4994 13.4624 17.0365 13.124 16.5568 12.7642C16.346 13.1754 16.1416 13.5442 15.9727 13.928ZM18.8412 2.05072C19.4818 2.06771 20.123 2.06023 20.7994 2.06023C20.7319 1.59714 20.6997 1.24619 20.6193 0.906576C20.5953 0.805529 20.4407 0.670951 20.3363 0.662342C19.6942 0.611139 19.0495 0.591428 18.3431 0.55835C18.4373 1.02575 18.5092 1.43764 18.6108 1.84251C18.6323 1.92837 18.7599 2.04845 18.8412 2.05072ZM19.6212 10.1333C19.6539 10.0731 19.6622 9.96364 19.6278 9.91108C19.3131 9.42691 18.9862 8.95022 18.6477 8.44862L17.551 9.43915L19.0675 11.0917C19.2712 10.743 19.4534 10.4419 19.6212 10.1333ZM20.8043 6.84206L21.4593 8.03854C22.4844 7.48618 22.5825 7.28635 22.2196 6.49021L20.8043 6.84206ZM25.7089 3.15521C26.1353 3.41394 26.5858 3.63439 27.0433 3.87681L27.3498 3.40783C26.7917 3.00658 26.2531 2.61848 25.6418 2.1785C25.6178 2.42862 25.5821 2.6033 25.5913 2.77594C25.5987 2.90758 25.6211 3.10219 25.7089 3.15521ZM25.114 6.94311C25.5748 6.99227 26.266 7.03917 26.7268 7.08879V6.47299C26.266 6.37376 25.5748 6.27543 25.114 6.17325V6.94311Z" fill="#A62C46"/>
</g>
<defs>
<clipPath id="clip0">
<rect width="29.4915" height="29" fill="white"/>
</clipPath>
</defs>
</svg>
