<svg width="30" height="29" viewBox="0 0 30 29" fill="none" xmlns="http://www.w3.org/2000/svg">
<g clip-path="url(#clip0)">
<path d="M4.7698 10.2404C5.27669 10.0592 5.80662 9.87793 6.35958 9.71934C6.22134 9.17559 6.10614 8.63184 6.01398 8.11074C5.53013 5.12012 6.06006 3.01309 7.53463 2.19746C7.9724 1.94824 8.45625 1.83496 9.00921 1.83496C10.622 1.83496 12.6726 3.01309 14.7462 4.98418C16.8199 3.01309 18.8704 1.83496 20.4833 1.83496C21.0362 1.83496 21.5201 1.94824 21.9578 2.19746C23.4324 3.03574 23.9623 5.14277 23.4785 8.11074C23.3863 8.63184 23.2711 9.17559 23.1329 9.71934C23.6859 9.87793 24.2158 10.0365 24.7227 10.2404C27.6027 11.3279 29.1694 12.8232 29.1694 14.4998C29.1694 16.1764 27.5797 17.6717 24.7227 18.7592C24.2158 18.9404 23.6859 19.1217 23.1329 19.2803C23.2711 19.824 23.3863 20.3678 23.4785 20.8889C23.9623 23.8795 23.4324 25.9865 21.9578 26.8022C21.5201 27.0514 21.0362 27.1646 20.4833 27.1646C18.8474 27.1646 16.7968 25.9865 14.7462 24.0154C12.6726 25.9865 10.622 27.1646 9.00921 27.1646C8.45625 27.1646 7.9724 27.0514 7.53463 26.8022C6.06006 25.9639 5.53013 23.8568 6.01398 20.8889C6.10614 20.3678 6.22134 19.824 6.35958 19.2803C5.80662 19.1217 5.27669 18.9631 4.7698 18.7592C1.88977 17.6717 0.323036 16.1764 0.323036 14.4998C0.323036 12.8232 1.88977 11.3279 4.7698 10.2404ZM8.17976 3.33027C7.23511 3.87402 6.91255 5.55059 7.30423 7.92949C7.37335 8.40527 7.48855 8.90371 7.62679 9.42481C8.82489 9.15293 10.0921 8.97168 11.4284 8.8584C12.2118 7.7709 13.0182 6.79668 13.8246 5.91309C12.1196 4.25918 10.3916 3.12637 8.98617 3.12637C8.68665 3.12637 8.41016 3.19434 8.17976 3.33027ZM10.7603 16.7654C11.175 17.4904 11.6588 18.2154 12.1657 18.9404C13.0182 19.0084 13.8707 19.0311 14.7462 19.0311C15.6448 19.0311 16.4973 19.0084 17.3267 18.9404C17.8336 18.2154 18.2944 17.4904 18.7092 16.7654C19.1469 16.0178 19.5616 15.2475 19.9303 14.4998C19.5616 13.7521 19.1469 12.9818 18.7092 12.2342C18.2944 11.5092 17.8106 10.7842 17.3037 10.0592C16.4512 9.99121 15.5987 9.96856 14.7232 9.96856C13.8246 9.96856 12.9721 9.99121 12.1427 10.0592C11.6358 10.7842 11.175 11.5092 10.7603 12.2342C10.3225 12.9818 9.90778 13.7521 9.53914 14.4998C9.93082 15.2475 10.3225 15.9951 10.7603 16.7654ZM8.84793 16.0178C8.50233 16.8107 8.22584 17.5811 7.9724 18.3514C8.75577 18.5326 9.58522 18.6686 10.4607 18.7818C10.1843 18.3514 9.88474 17.8982 9.6313 17.4225C9.35482 16.9467 9.10137 16.4709 8.84793 16.0178ZM14.7462 22.1576C15.2992 21.5686 15.8291 20.9342 16.336 20.2771C15.8061 20.2998 15.2762 20.3225 14.7462 20.3225C14.2163 20.3225 13.6864 20.2998 13.1565 20.2771C13.6633 20.9342 14.1933 21.5686 14.7462 22.1576ZM19.0317 18.7592C19.9073 18.6459 20.7367 18.51 21.5201 18.3287C21.2666 17.5811 20.9901 16.7881 20.6445 15.9951C20.3911 16.4482 20.1377 16.924 19.8612 17.3771C19.5847 17.8756 19.3082 18.3061 19.0317 18.7592ZM20.6445 12.9818C20.9901 12.1889 21.2666 11.4186 21.5201 10.6482C20.7367 10.467 19.9073 10.3311 19.0317 10.2178C19.3082 10.6482 19.6077 11.1014 19.8612 11.5771C20.1377 12.0529 20.3911 12.5287 20.6445 12.9818ZM14.7462 6.84199C14.1933 7.43106 13.6633 8.06543 13.1565 8.72246C13.6864 8.69981 14.2163 8.67715 14.7462 8.67715C15.2762 8.67715 15.8061 8.69981 16.336 8.72246C15.8291 8.06543 15.2992 7.43106 14.7462 6.84199ZM9.6313 11.5998L10.4607 10.2404C9.58522 10.3537 8.75577 10.4896 7.9724 10.6709C8.22584 11.4186 8.50233 12.2115 8.84793 13.0045C9.10137 12.5287 9.35482 12.0529 9.6313 11.5998ZM22.1882 7.92949C22.5799 5.55059 22.2574 3.87402 21.3127 3.33027C21.0823 3.19434 20.8058 3.12637 20.5063 3.12637C19.1239 3.12637 17.3959 4.23652 15.6678 5.91309C16.4743 6.77402 17.2807 7.7709 18.064 8.8584C19.4004 8.97168 20.6676 9.17559 21.8657 9.42481C22.0039 8.90371 22.0961 8.40527 22.1882 7.92949ZM27.8792 14.4998C27.8792 13.435 26.5659 12.3021 24.2619 11.4639C23.8011 11.2826 23.2942 11.124 22.7873 10.9881C22.4186 12.1209 21.9578 13.3217 21.4049 14.5225C21.9578 15.7232 22.4417 16.9014 22.7873 18.0342C25.9668 17.1279 27.8792 15.7686 27.8792 14.4998ZM21.3127 25.6693C22.2574 25.1256 22.5799 23.449 22.1882 21.0701C22.1191 20.5943 22.0039 20.0959 21.8657 19.5748C20.6676 19.8467 19.4004 20.0279 18.064 20.1412C17.2807 21.2287 16.4743 22.2029 15.6678 23.0865C17.3728 24.7404 19.1008 25.8732 20.5063 25.8732C20.8058 25.8732 21.0823 25.8053 21.3127 25.6693ZM7.30423 21.0701C6.91255 23.449 7.23511 25.1256 8.17976 25.6693C8.41016 25.8053 8.68665 25.8732 8.98617 25.8732C10.3686 25.8732 12.0966 24.7631 13.8246 23.0865C13.0182 22.2256 12.2118 21.2287 11.4284 20.1412C10.0921 20.0279 8.82489 19.824 7.62679 19.5748C7.48855 20.0959 7.39639 20.5943 7.30423 21.0701ZM5.23061 17.5357C5.69141 17.717 6.1983 17.8756 6.70518 18.0115C7.07383 16.8787 7.53464 15.6779 8.0876 14.4771C7.53464 13.2764 7.05079 12.0982 6.70518 10.9654C3.52563 11.8717 1.61329 13.2311 1.61329 14.4998C1.61329 15.5646 2.94962 16.6975 5.23061 17.5357Z" fill="#49D5FF"/>
</g>
<defs>
<clipPath id="clip0">
<rect width="29.4915" height="29" fill="white" transform="matrix(-1 0 0 1 29.4917 0)"/>
</clipPath>
</defs>
</svg>
