<svg width="110" height="296" viewBox="0 0 110 296" fill="none" xmlns="http://www.w3.org/2000/svg">
  <path d="M53.2 240C43.0667 240 34.9333 237.867 28.8 233.6C22.8 229.2 18.4 222.867 15.6 214.6C12.9333 206.333 11.6 196.4 11.6 184.8V130.6C11.6 118.733 12.8 108.667 15.2 100.4C17.7333 92 22.1333 85.6 28.4 81.2C34.8 76.8 43.6667 74.6 55 74.6C65.1333 74.6 73.2667 76.3333 79.4 79.8C85.6667 83.1333 90.2 88.3333 93 95.4C95.8 102.333 97.2 111.133 97.2 121.8V127.8H76V122.8C76 115.733 75.5333 110 74.6 105.6C73.6667 101.067 71.7333 97.7333 68.8 95.6C66 93.3333 61.5333 92.2 55.4 92.2C48.7333 92.2 43.8667 93.7333 40.8 96.8C37.8667 99.8667 36 104.067 35.2 109.4C34.5333 114.6 34.2 120.533 34.2 127.2V187.2C34.2 194.933 34.7333 201.4 35.8 206.6C37 211.8 39.2 215.667 42.4 218.2C45.6 220.733 50.1333 222 56 222C61.8667 222 66.4 220.6 69.6 217.8C72.8 215 75 210.867 76.2 205.4C77.4 199.933 78 193.133 78 185V173.8H57.4V157.8H98.4V238H84.2L82 219.4C79.8667 225.4 76.5333 230.333 72 234.2C67.4667 238.067 61.2 240 53.2 240Z" fill="#000"/>
  <path d="M51.2 240C41.0667 240 32.9333 237.867 26.8 233.6C20.8 229.2 16.4 222.867 13.6 214.6C10.9333 206.333 9.6 196.4 9.6 184.8V130.6C9.6 118.733 10.8 108.667 13.2 100.4C15.7333 92 20.1333 85.6 26.4 81.2C32.8 76.8 41.6667 74.6 53 74.6C63.1333 74.6 71.2667 76.3333 77.4 79.8C83.6667 83.1333 88.2 88.3333 91 95.4C93.8 102.333 95.2 111.133 95.2 121.8V127.8H74V122.8C74 115.733 73.5333 110 72.6 105.6C71.6667 101.067 69.7333 97.7333 66.8 95.6C64 93.3333 59.5333 92.2 53.4 92.2C46.7333 92.2 41.8667 93.7333 38.8 96.8C35.8667 99.8667 34 104.067 33.2 109.4C32.5333 114.6 32.2 120.533 32.2 127.2V187.2C32.2 194.933 32.7333 201.4 33.8 206.6C35 211.8 37.2 215.667 40.4 218.2C43.6 220.733 48.1333 222 54 222C59.8667 222 64.4 220.6 67.6 217.8C70.8 215 73 210.867 74.2 205.4C75.4 199.933 76 193.133 76 185V173.8H55.4V157.8H96.4V238H82.2L80 219.4C77.8667 225.4 74.5333 230.333 70 234.2C65.4667 238.067 59.2 240 51.2 240Z" fill="#752BF7"/>
</svg>
