<svg width="56" height="56" viewBox="0 0 56 56" fill="none" xmlns="http://www.w3.org/2000/svg">
<path fill-rule="evenodd" clip-rule="evenodd" d="M44.751 3.75731C39.158 2.63731 31.794 2.49031 26.761 7.51631C26.5986 7.67912 26.4699 7.87235 26.3822 8.08495C26.2945 8.29755 26.2496 8.52534 26.25 8.75531V47.2553C26.2494 47.6019 26.3517 47.9408 26.5439 48.2292C26.7362 48.5176 27.0097 48.7423 27.3299 48.8751C27.65 49.0078 28.0024 49.0424 28.3423 48.9746C28.6821 48.9069 28.9942 48.7397 29.239 48.4943C32.1895 45.5403 36.6415 44.7878 41.384 45.2743C46.088 45.7643 50.694 47.4338 53.466 48.8198C53.7328 48.9535 54.0294 49.0167 54.3275 49.0035C54.6256 48.9903 54.9154 48.9011 55.1693 48.7443C55.4233 48.5875 55.6329 48.3684 55.7783 48.1078C55.9237 47.8472 56 47.5537 56 47.2553V8.75531C56 8.43058 55.9096 8.11226 55.739 7.83596C55.5684 7.55967 55.3243 7.33628 55.034 7.19081L54.25 8.75531L55.034 7.19081L55.027 7.18731L55.013 7.18031L54.9675 7.15931L54.803 7.07881C53.8848 6.65008 52.9521 6.25318 52.0065 5.88881C49.6515 4.97759 47.2246 4.26462 44.751 3.75731V3.75731ZM52.5 9.87531V44.5533C49.539 43.3528 45.696 42.2013 41.741 41.7953C37.7405 41.3823 33.3865 41.7148 29.75 43.7553V9.51831C33.4705 6.26681 38.9585 6.17231 44.065 7.19431C46.9635 7.78728 49.791 8.68597 52.5 9.87531V9.87531Z" fill="#612AC2"/>
<path fill-rule="evenodd" clip-rule="evenodd" d="M11.249 3.75731C16.8455 2.63731 24.206 2.49031 29.239 7.51631C29.4014 7.67912 29.5301 7.87235 29.6178 8.08495C29.7055 8.29755 29.7504 8.52534 29.75 8.75531V47.2553C29.7506 47.6019 29.6483 47.9408 29.4561 48.2292C29.2638 48.5176 28.9903 48.7423 28.6701 48.8751C28.35 49.0078 27.9976 49.0424 27.6577 48.9746C27.3179 48.9069 27.0058 48.7397 26.761 48.4943C23.8105 45.5403 19.3585 44.7878 14.616 45.2743C9.912 45.7643 5.306 47.4338 2.534 48.8198C2.2672 48.9535 1.97064 49.0167 1.67251 49.0035C1.37438 48.9903 1.08458 48.9011 0.83065 48.7443C0.576724 48.5875 0.367107 48.3684 0.221721 48.1078C0.0763348 47.8472 1.0014e-05 47.5537 0 47.2553L0 8.75531C1.08967e-05 8.43058 0.0903712 8.11226 0.260972 7.83596C0.431573 7.55967 0.675685 7.33628 0.966 7.19081L1.75 8.75531L0.966 7.19081L0.973 7.18731L0.987 7.18031L1.0325 7.15931C1.28622 7.03294 1.54296 6.91274 1.8025 6.79881C4.83172 5.44223 8.0007 4.42229 11.2525 3.75731H11.249Z" fill="#612AC2"/>
</svg>
