<svg width="69" height="62" viewBox="0 0 69 62" fill="none" xmlns="http://www.w3.org/2000/svg">
<path d="M24.9167 0C21.3349 0 18.3641 2.45573 17.5135 5.77396C17.4177 5.77396 17.3458 5.75 17.25 5.75C13.0214 5.75 9.58333 9.18802 9.58333 13.4167C9.58333 13.9917 9.65521 14.5547 9.78698 15.0938C6.28906 16.5313 3.83333 19.9573 3.83333 23.9583C3.83333 25.4677 4.21667 26.8693 4.8276 28.1391C1.9526 29.7922 0 32.8589 0 36.4167C0 40.4057 2.44375 43.8318 5.91771 45.2693C5.8099 45.8203 5.75 46.3833 5.75 46.9583C5.75 51.726 9.60729 55.5833 14.375 55.5833C14.8661 55.5833 15.3453 55.5234 15.8125 55.4396C16.9625 58.8536 20.149 61.3333 23.9583 61.3333C28.726 61.3333 32.5833 57.476 32.5833 52.7083V7.66667C32.5833 3.43802 29.1453 0 24.9167 0ZM69 36.4167C69 32.8589 67.0474 29.7922 64.1724 28.1391C64.7953 26.8693 65.1667 25.4677 65.1667 23.9583C65.1667 19.9573 62.7109 16.5313 59.213 15.0938C59.3328 14.5547 59.4167 13.9917 59.4167 13.4167C59.4167 9.18802 55.9786 5.75 51.75 5.75C51.6542 5.75 51.5703 5.77396 51.4865 5.77396C50.6359 2.45573 47.6651 0 44.0833 0C39.8547 0 36.4167 3.42604 36.4167 7.66667V52.7083C36.4167 57.476 40.274 61.3333 45.0417 61.3333C48.851 61.3333 52.0375 58.8536 53.1875 55.4396C53.6547 55.5234 54.1339 55.5833 54.625 55.5833C59.3927 55.5833 63.25 51.726 63.25 46.9583C63.25 46.3833 63.1901 45.8203 63.0823 45.2693C66.5562 43.8318 69 40.4057 69 36.4167Z" fill="#612AC2"/>
</svg>
