<svg width="29" height="29" viewBox="0 0 29 29" fill="none" xmlns="http://www.w3.org/2000/svg">
<path fill-rule="evenodd" clip-rule="evenodd" d="M14.5 1.15625C6.94484 1.15625 0.818359 7.28137 0.818359 14.8379C0.818359 20.883 4.73857 26.0113 10.1747 27.8206C10.8583 27.9475 11.1093 27.5238 11.1093 27.1625C11.1093 26.8362 11.0966 25.7584 11.0907 24.6152C7.28445 25.4428 6.48129 23.001 6.48129 23.001C5.85892 21.4195 4.96219 20.999 4.96219 20.999C3.72063 20.1499 5.05576 20.1676 5.05576 20.1676C6.42941 20.2639 7.15305 21.5775 7.15305 21.5775C8.37331 23.6686 10.3537 23.0642 11.1344 22.7148C11.2572 21.8305 11.6118 21.2267 12.0031 20.8851C8.96419 20.5396 5.76943 19.3662 5.76943 14.1238C5.76943 12.6301 6.30412 11.4096 7.17933 10.4512C7.03705 10.1068 6.56874 8.71528 7.31164 6.83073C7.31164 6.83073 8.46031 6.46302 11.0748 8.23316C12.1664 7.92979 13.3371 7.77731 14.5 7.7721C15.6623 7.77731 16.8336 7.92934 17.9272 8.2327C20.5386 6.46257 21.6859 6.83028 21.6859 6.83028C22.4306 8.7146 21.9623 10.1064 21.8202 10.4508C22.6975 11.4091 23.2283 12.6296 23.2283 14.1233C23.2283 19.3782 20.0277 20.535 16.9811 20.874C17.4721 21.2986 17.9093 22.1314 17.9093 23.4076C17.9093 25.2383 17.8935 26.7116 17.8935 27.1622C17.8935 27.5263 18.14 27.9529 18.8333 27.8186C24.2662 26.0074 28.1819 20.8808 28.1819 14.8379C28.1817 7.28182 22.0559 1.15648 14.5 1.15648V1.15625Z" fill="black"/>
<path d="M6.0002 20.7997C5.97007 20.8677 5.86313 20.8881 5.76571 20.8416C5.66602 20.7972 5.61052 20.7046 5.64269 20.6364C5.67214 20.5661 5.7793 20.5469 5.87831 20.5938C5.978 20.6384 6.03464 20.732 5.99998 20.7999L6.0002 20.7997ZM6.55437 21.418C6.48935 21.4785 6.3618 21.4504 6.27525 21.3546C6.18553 21.2594 6.16877 21.1319 6.23515 21.0705C6.30266 21.0102 6.42637 21.0387 6.51609 21.1339C6.60535 21.2304 6.62302 21.3568 6.5546 21.4182L6.55437 21.418ZM7.09405 22.2058C7.01022 22.2642 6.87292 22.2096 6.78819 22.0879C6.70436 21.9661 6.70436 21.8199 6.79045 21.7617C6.87496 21.7032 7.01022 21.756 7.09631 21.8766C7.17969 22 7.17969 22.1462 7.09405 22.2055V22.2058ZM7.83287 22.9672C7.7581 23.0499 7.59815 23.0277 7.48124 22.9151C7.36184 22.8048 7.32854 22.6478 7.40353 22.5653C7.47966 22.4824 7.64029 22.5055 7.75787 22.6174C7.87727 22.7275 7.9133 22.8848 7.83332 22.967L7.83287 22.9672ZM8.8524 23.4093C8.81909 23.5164 8.66548 23.5651 8.51029 23.5194C8.35555 23.4725 8.25427 23.3472 8.28599 23.2389C8.31771 23.1308 8.47245 23.0803 8.62855 23.129C8.7833 23.1757 8.88457 23.3003 8.8524 23.4093ZM9.9723 23.491C9.97615 23.6039 9.84474 23.6972 9.6823 23.6995C9.51849 23.7033 9.38595 23.6118 9.38437 23.5008C9.38437 23.3868 9.51305 23.2946 9.67663 23.2914C9.83908 23.2885 9.97252 23.3791 9.97252 23.4908L9.9723 23.491ZM11.014 23.3139C11.0335 23.4238 10.9205 23.5368 10.7589 23.5669C10.6003 23.5964 10.4531 23.528 10.4327 23.419C10.4132 23.3062 10.5283 23.1931 10.6869 23.1639C10.8486 23.136 10.9936 23.2024 11.014 23.3141V23.3139Z" fill="black"/>
</svg>
