<svg width="29" height="29" viewBox="0 0 29 29" fill="none" xmlns="http://www.w3.org/2000/svg">
<path d="M28.6864 16.3828L27.0927 11.4784L23.9342 1.75815C23.772 1.25835 23.0642 1.25835 22.902 1.75815L19.7437 11.4784H9.25659L6.0983 1.75815C5.93586 1.25835 5.2283 1.25835 5.06586 1.75815L1.9078 11.4786L0.313937 16.3828C0.243048 16.6008 0.24301 16.8357 0.313827 17.0538C0.384645 17.2718 0.522683 17.4619 0.708155 17.5967L14.5001 27.6166L28.2919 17.5965C28.4773 17.4617 28.6153 17.2716 28.6861 17.0536C28.7569 16.8356 28.7569 16.6008 28.6861 16.3828" fill="#FC6D26"/>
<path d="M14.4999 27.6166L19.7435 11.4785H9.25635L14.4999 27.6163V27.6166Z" fill="#E24329"/>
<path d="M14.5001 27.6166L9.2565 11.4785H1.90771L14.5001 27.6163V27.6166Z" fill="#FC6D26"/>
<path d="M1.90756 11.4783L0.313468 16.3827C0.242561 16.6007 0.242515 16.8355 0.313335 17.0536C0.384156 17.2716 0.522206 17.4616 0.707687 17.5964L14.4999 27.6165L1.90756 11.4785V11.4783Z" fill="#FCA326"/>
<path d="M1.90771 11.4784H9.2565L6.09822 1.75815C5.93577 1.25835 5.22821 1.25835 5.06577 1.75815L1.90771 11.4786V11.4784Z" fill="#E24329"/>
<path d="M14.5 27.6166L19.7436 11.4785H27.0926L14.5 27.6163V27.6166Z" fill="#FC6D26"/>
<path d="M27.0923 11.4783L28.6862 16.3827C28.7571 16.6007 28.7572 16.8355 28.6863 17.0536C28.6155 17.2716 28.4775 17.4616 28.292 17.5964L14.5 27.6165L27.0923 11.4785V11.4783Z" fill="#FCA326"/>
<path d="M27.0922 11.4784H19.7437L22.9019 1.75839C23.0644 1.2586 23.7719 1.2586 23.9344 1.75839L27.0927 11.4786L27.0922 11.4784Z" fill="#E24329"/>
</svg>
