<svg width="64" height="52" viewBox="0 0 64 52" fill="none" xmlns="http://www.w3.org/2000/svg">
<path fill-rule="evenodd" clip-rule="evenodd" d="M0 7.34745C0 5.39878 0.842855 3.52993 2.34315 2.15202C3.84344 0.774104 5.87827 0 8 0H56C58.1217 0 60.1566 0.774104 61.6569 2.15202C63.1571 3.52993 64 5.39878 64 7.34745V44.0847C64 46.0333 63.1571 47.9022 61.6569 49.2801C60.1566 50.658 58.1217 51.4321 56 51.4321H8C5.87827 51.4321 3.84344 50.658 2.34315 49.2801C0.842855 47.9022 0 46.0333 0 44.0847V7.34745ZM38 27.5529H26C25.4696 27.5529 24.9609 27.7465 24.5858 28.0909C24.2107 28.4354 24 28.9026 24 29.3898C24 29.877 24.2107 30.3442 24.5858 30.6886C24.9609 31.0331 25.4696 31.2266 26 31.2266H38C38.5304 31.2266 39.0391 31.0331 39.4142 30.6886C39.7893 30.3442 40 29.877 40 29.3898C40 28.9026 39.7893 28.4354 39.4142 28.0909C39.0391 27.7465 38.5304 27.5529 38 27.5529ZM12.584 26.2524L19.172 20.2055L12.584 14.1585C12.398 13.9877 12.2505 13.785 12.1499 13.5619C12.0493 13.3387 11.9975 13.0996 11.9975 12.858C11.9975 12.6165 12.0493 12.3773 12.1499 12.1542C12.2505 11.9311 12.398 11.7283 12.584 11.5575C12.77 11.3867 12.9907 11.2513 13.2337 11.1588C13.4766 11.0664 13.737 11.0189 14 11.0189C14.263 11.0189 14.5234 11.0664 14.7663 11.1588C15.0093 11.2513 15.23 11.3867 15.416 11.5575L23.416 18.905C23.6023 19.0756 23.75 19.2783 23.8509 19.5015C23.9517 19.7246 24.0036 19.9639 24.0036 20.2055C24.0036 20.4471 23.9517 20.6863 23.8509 20.9095C23.75 21.1326 23.6023 21.3353 23.416 21.506L15.416 28.8534C15.0405 29.1983 14.5311 29.3921 14 29.3921C13.4689 29.3921 12.9595 29.1983 12.584 28.8534C12.2085 28.5085 11.9975 28.0407 11.9975 27.5529C11.9975 27.0651 12.2085 26.5973 12.584 26.2524V26.2524Z" fill="#612AC2"/>
</svg>
